<svg enable-background="new 0 0 868.54 162.2" viewBox="0 0 868.54 162.2" xmlns="http://www.w3.org/2000/svg"><g fill="#fff"><path d="m12.56 24.37c0-2.36 1.01-3.37 3.37-3.37h73.17c2.36 0 3.37 1.01 3.37 3.37v10.79c0 1.69-.67 2.36-2.36 2.36h-59v33.21h46.87c2.36 0 3.37 1.01 3.37 3.37v9.78c0 2.36-1.01 3.37-3.37 3.37h-46.87v48.38c0 2.36-1.01 3.37-3.37 3.37h-11.8c-2.36 0-3.37-1.01-3.37-3.37v-111.26z"/><path d="m91.3 99.39c0-25.46 17.36-41.3 41.3-41.3s41.3 15.85 41.3 41.3c0 27.31-18.88 41.3-41.3 41.3s-41.3-13.99-41.3-41.3zm64.74.17c0-17.03-10.45-26.64-23.43-26.64s-23.43 9.61-23.43 26.64c0 15.51 8.77 26.3 23.43 26.3s23.43-10.79 23.43-26.3z"/><path d="m188.06 63.15c0-2.36 1.01-3.37 3.37-3.37h10.45c2.36 0 3.37 1.01 3.37 3.37v7.08c5.56-7.08 13.99-12.14 25.62-12.14 15.17 0 24.61 9.27 24.61 23.43 0 2.36-1.18 3.37-3.37 3.37h-10.61c-1.85 0-2.53-.67-2.7-2.7-.67-5.73-4.21-9.27-11.46-9.27-6.74 0-12.47 4.55-16.18 9.78s-5.9 11.63-5.9 21.75v31.19c0 2.36-1.01 3.37-3.37 3.37h-10.45c-2.36 0-3.37-1.01-3.37-3.37v-72.49z"/><path d="m266.95 63.15c0-2.36 1.01-3.37 3.37-3.37h10.45c2.36 0 3.37 1.01 3.37 3.37v7.25c5.39-7.59 12.31-12.31 23.43-12.31 10.12 0 17.03 4.04 20.06 11.13 5.39-6.41 13.66-11.13 25.46-11.13 13.99 0 23.77 7.59 23.77 23.43v54.11c0 2.36-1.01 3.37-3.37 3.37h-10.45c-2.36 0-3.37-1.01-3.37-3.37v-51.75c0-7.08-3.03-10.96-9.95-10.96-5.06 0-9.78 2.36-13.82 7.25-4.21 5.06-6.07 9.78-6.07 18.21v37.26c0 2.36-1.01 3.37-3.37 3.37h-10.45c-2.36 0-3.37-1.01-3.37-3.37v-51.93c0-7.08-3.03-10.79-9.95-10.79-4.72 0-9.61 2.7-13.15 7.25s-5.39 7.92-5.39 16.69v38.77c0 2.36-1.01 3.37-3.37 3.37h-10.45c-2.36 0-3.37-1.01-3.37-3.37v-72.48z"/><path d="m404 24.04c6.41 0 11.46 5.06 11.46 11.46 0 6.41-5.06 11.46-11.46 11.46-6.41 0-11.46-5.06-11.46-11.46-.01-6.41 5.05-11.46 11.46-11.46zm-8.6 39.11c0-2.36 1.01-3.37 3.37-3.37h10.45c2.36 0 3.37 1.01 3.37 3.37v72.49c0 2.36-1.01 3.37-3.37 3.37h-10.45c-2.36 0-3.37-1.01-3.37-3.37z"/><path d="m491.17 132.1c-6.58 5.56-12.31 8.6-24.44 8.6-19.89 0-36.58-13.82-36.58-41.3 0-25.96 17.7-41.3 38.61-41.3 9.95 0 17.53 3.2 22.42 8.43v-45.53c0-2.36 1.01-3.37 3.37-3.37h10.45c2.36 0 3.37 1.01 3.37 3.37v114.63c0 2.36-1.01 3.37-3.2 3.37h-8.26c-2.36 0-3.54-.84-4.38-3.37zm0-39.28c0-5.23-1.01-8.6-4.55-12.47-3.71-4.21-9.27-7.42-16.18-7.42-12.81 0-22.42 10.12-22.42 26.64 0 15.17 8.6 26.3 22.25 26.3 7.59 0 13.49-3.2 16.86-7.59 3.2-4.04 4.05-7.59 4.05-13.15v-12.31z"/><path d="m588.95 131.25c-6.58 6.24-12.98 9.44-25.12 9.44-21.41 0-39.45-13.82-39.45-41.3 0-25.96 18.21-41.3 40.46-41.3 11.97 0 19.89 4.21 24.11 9.27v-4.21c0-2.36 1.01-3.37 3.37-3.37h10.45c2.36 0 3.37 1.01 3.37 3.37v72.49c0 2.36-1.01 3.37-3.37 3.37h-8.26c-2.19 0-3.54-.84-4.21-3.37zm0-39.11c0-5.06-1.18-8.43-4.89-12.31-3.54-3.54-9.27-6.91-17.2-6.91-13.99 0-24.61 9.95-24.61 26.64 0 16.18 10.11 26.3 24.28 26.3 8.77 0 15-4.21 18.54-8.6 2.87-3.88 3.88-7.25 3.88-12.64z"/><path d="m624.89 21c0-2.36 1.01-3.37 3.37-3.37h10.45c2.36 0 3.37 1.01 3.37 3.37v50.57c6.24-7.42 16.18-13.49 27.98-13.49 22.76 0 34.73 15.34 34.73 40.96 0 23.77-14.33 41.64-39.11 41.64-9.78 0-17.2-2.53-23.6-6.74v1.69c0 2.36-1.01 3.37-3.37 3.37h-10.45c-2.36 0-3.37-1.01-3.37-3.37zm17.19 91.37c0 4.05 2.02 6.07 4.38 7.92 5.06 3.71 11.13 5.56 17.03 5.56 15.17 0 23.43-11.63 23.43-26.64 0-17.53-8.77-26.3-20.23-26.3-10.96 0-17.7 7.42-21.24 13.32-2.02 3.54-3.37 6.57-3.37 12.64z"/><path d="m719.45 21c0-2.36 1.01-3.37 3.37-3.37h10.45c2.36 0 3.37 1.01 3.37 3.37v96.43c0 6.07 2.7 8.43 6.58 8.43 3.71 0 5.39-1.69 7.08-1.69 1.01 0 1.69.84 1.69 2.19v10.12c0 1.52-.67 2.19-1.69 2.53-2.7 1.01-7.59 1.69-11.63 1.69-9.27 0-19.22-5.39-19.22-19.22z"/><path d="m835.11 122.15c.51.51.84 1.18.84 1.85s-.34 1.35-1.01 2.02c-10.96 10.96-19.05 14.67-34.56 14.67-21.07 0-41.13-14.67-41.13-41.3 0-25.12 18.21-41.3 40.46-41.3 26.97 0 39.45 20.9 39.45 40.12v3.37c0 2.36-1.01 3.37-3.37 3.37h-59.34c2.19 12.81 11.29 20.9 24.78 20.9 11.13 0 17.2-4.21 22.42-10.12.84-1.01 1.52-1.52 2.53-1.52.68 0 1.35.34 2.19 1.18zm-13.15-31.36c-2.87-12.31-11.97-17.87-21.92-17.87-10.79 0-20.9 6.58-23.6 17.87z"/><path d="m838.94 63.67h1.34c-.06 1.18.72 1.83 1.93 1.83 1.23 0 1.82-.49 1.82-1.23 0-.83-.74-1.11-2.39-1.57-1.69-.48-2.46-1.14-2.46-2.35 0-1.31 1.15-2.37 2.9-2.37 1.84 0 3.05 1.04 3.05 2.58h-1.29c-.01-.98-.71-1.53-1.76-1.53-.97 0-1.62.47-1.62 1.18 0 .77.49 1.04 1.57 1.35 2.02.59 3.31.91 3.31 2.58 0 1.47-1.28 2.41-3.14 2.41-1.99 0-3.26-1.17-3.26-2.88z"/><path d="m847.23 58.09h1.95l1.93 5.49c.44 1.23.47 1.67.47 1.67h.05s.03-.43.48-1.67l1.98-5.49h1.9v8.34h-1.2l.01-7.2h-.04s-.08.54-.48 1.65l-2 5.55h-1.35l-1.97-5.55c-.41-1.13-.49-1.65-.49-1.65h-.04v7.2h-1.2z"/></g></svg>