<svg width="111" height="20" viewBox="0 0 111 20" fill="none" xmlns="http://www.w3.org/2000/svg">
<path d="M65.4574 19.9986C64.2363 20.0177 63.0321 19.7114 61.969 19.1111C60.942 18.5208 60.0964 17.6608 59.5242 16.6244C58.9228 15.5583 58.6221 14.3144 58.6221 12.8929C58.6221 11.4713 58.9278 10.228 59.5393 9.16283C60.1224 8.12407 60.9787 7.26421 62.0157 6.67614C63.0834 6.09283 64.2809 5.78711 65.498 5.78711C66.715 5.78711 67.9125 6.09283 68.9803 6.67614C70.0106 7.2682 70.8616 8.1274 71.4431 9.16283C72.0536 10.229 72.3593 11.4723 72.3603 12.8929C72.3613 14.3134 72.0556 15.5573 71.4431 16.6244C70.8587 17.6622 70.0027 18.5218 68.9667 19.1111C67.896 19.7113 66.6851 20.0175 65.4574 19.9986ZM65.4574 17.5119C66.1356 17.5162 66.8023 17.3366 67.3865 16.9923C68.0014 16.623 68.4997 16.088 68.8239 15.4486C69.1877 14.7659 69.3702 13.915 69.3712 12.8959C69.3722 11.8768 69.1943 11.0259 68.8374 10.3431C68.6042 9.88376 68.2793 9.47696 67.8827 9.14774C67.4861 8.81852 67.0263 8.57385 66.5314 8.42882C66.0366 8.28378 65.5173 8.24145 65.0055 8.30441C64.4936 8.36737 64.0001 8.53431 63.5553 8.79493C62.9411 9.16469 62.4435 9.69965 62.1194 10.3386C61.7545 11.0224 61.5721 11.8733 61.5721 12.8914C61.5721 13.9095 61.7545 14.7604 62.1194 15.4441C62.4404 16.0809 62.933 16.6155 63.5418 16.9878C64.1201 17.3347 64.7828 17.516 65.4574 17.5119Z" fill="#B476F1"/>
<path d="M80.1228 19.9988C78.4809 19.9988 77.1903 19.4887 76.2511 18.4686C75.3119 17.4485 74.8427 15.9259 74.8438 13.9007V6.11621H77.7442V13.6003C77.7442 16.2252 78.8207 17.5371 80.9739 17.5361C81.4732 17.5498 81.9695 17.4542 82.428 17.256C82.8865 17.0579 83.2959 16.7619 83.6277 16.3889C84.3213 15.623 84.6682 14.5298 84.6682 13.1093V6.11621H87.5686V19.6714H84.9959L84.7839 17.2928C84.3762 18.1199 83.7341 18.8091 82.9375 19.275C82.0834 19.7693 81.1098 20.0197 80.1228 19.9988Z" fill="#B476F1"/>
<path d="M96.5709 19.6713C95.2397 19.6713 94.1817 19.348 93.3968 18.7013C92.612 18.0546 92.22 16.9033 92.221 15.2475V8.54726H89.8965V6.11612H92.2225V2.67139H95.1229V6.11612H98.9541V8.54726H95.1229V15.243C95.1229 15.9908 95.2823 16.5059 95.6011 16.7882C95.9198 17.0705 96.4711 17.2117 97.255 17.2117H98.8157V19.6713H96.5709Z" fill="#B476F1"/>
<path d="M104.932 6.11621H101.359L107.975 12.8931L101.359 19.6714H104.932L110.02 14.4668C110.433 14.0457 110.665 13.4797 110.665 12.8901C110.665 12.3005 110.433 11.7344 110.02 11.3134L104.932 6.11621Z" fill="#FFF9F1"/>
<path d="M6.15717 19.9985C4.44108 19.9985 3.02721 19.5796 1.91556 18.7417C1.37865 18.3513 0.930437 17.8519 0.600313 17.2764C0.270189 16.7008 0.0656105 16.0621 0 15.402H2.92748C3.08358 16.0367 3.45033 16.5999 3.96796 16.9998C4.51526 17.4473 5.23598 17.6705 6.13011 17.6695C7.00519 17.6695 7.64371 17.4873 8.04567 17.1229C8.23153 16.9698 8.38166 16.778 8.48554 16.5609C8.58943 16.3438 8.64457 16.1067 8.64711 15.866C8.64711 15.1733 8.36894 14.7043 7.81262 14.459C7.06707 14.1564 6.29208 13.932 5.50011 13.7893C4.72475 13.6226 3.96167 13.4034 3.21617 13.1331C2.51159 12.8914 1.86926 12.497 1.33518 11.9783C0.833988 11.4778 0.583391 10.799 0.583391 9.94212C0.574193 9.37695 0.692395 8.81695 0.92924 8.30359C1.16609 7.79022 1.51551 7.33664 1.95165 6.9764C2.86482 6.18354 4.14187 5.78711 5.78278 5.78711C7.29739 5.78711 8.52431 6.1515 9.46355 6.8803C10.4028 7.60909 10.9541 8.6387 11.1175 9.96915H8.31933C8.28459 9.69859 8.19509 9.43792 8.05628 9.203C7.91747 8.96808 7.73226 8.76382 7.5119 8.60266C7.06484 8.2733 6.46741 8.10913 5.71962 8.11013C4.98888 8.11013 4.42304 8.26029 4.02208 8.56062C3.83417 8.68997 3.68102 8.86351 3.57613 9.06594C3.47124 9.26837 3.41784 9.49346 3.42065 9.72137C3.42065 10.1959 3.69881 10.5693 4.25514 10.8416C4.96075 11.166 5.69925 11.4137 6.45789 11.5804C7.31435 11.7649 8.1597 11.9975 8.98992 12.2772C9.70151 12.5021 10.3455 12.9011 10.8634 13.4379C11.3385 13.9485 11.5761 14.6958 11.5761 15.6798C11.5941 16.9192 11.115 17.9483 10.1387 18.7672C9.16233 19.5861 7.83517 19.9965 6.15717 19.9985Z" fill="#FFF9F1"/>
<path d="M20.7153 19.999C19.4761 20.0222 18.253 19.716 17.1714 19.1115C16.1499 18.528 15.3115 17.6715 14.7506 16.6383C14.1652 15.5812 13.873 14.3513 13.874 12.9488C13.874 11.5273 14.1617 10.2789 14.7371 9.20376C15.2854 8.15588 16.1194 7.28438 17.1428 6.69004C18.1743 6.08938 19.3741 5.78906 20.7424 5.78906C22.0726 5.78906 23.2308 6.08539 24.2172 6.67803C25.1804 7.24752 25.9741 8.06345 26.5161 9.04159C27.0664 10.0368 27.3492 11.1573 27.3371 12.2941C27.3371 12.4758 27.3371 12.6725 27.3236 12.8813C27.31 13.09 27.2995 13.3227 27.2815 13.578H16.7203C16.8115 14.8904 17.2451 15.888 18.0209 16.5708C18.7575 17.2396 19.7198 17.606 20.7153 17.5964C21.5363 17.5964 22.2249 17.4092 22.7812 17.0348C23.3374 16.663 23.771 16.1353 24.0277 15.5181H26.9281C26.5657 16.79 25.8028 17.9114 24.7524 18.7166C23.6669 19.5715 22.3212 19.999 20.7153 19.999ZM20.7153 8.16614C19.7854 8.15379 18.8789 8.45716 18.1442 9.02657C17.3954 9.60019 16.9393 10.4611 16.7759 11.6094H24.4442C24.3891 10.5522 24.0147 9.71382 23.321 9.09414C22.6274 8.47447 21.7588 8.16514 20.7153 8.16614Z" fill="#FFF9F1"/>
<path d="M36.3128 19.999C35.0736 20.0225 33.8504 19.7162 32.7689 19.1115C31.7496 18.5271 30.9134 17.6707 30.3541 16.6383C29.7687 15.5812 29.4765 14.3513 29.4775 12.9488C29.4775 11.5273 29.7652 10.2789 30.3406 9.20376C30.8889 8.15588 31.7229 7.28438 32.7463 6.69004C33.7778 6.08938 34.9776 5.78906 36.3459 5.78906C37.6761 5.78906 38.8343 6.08539 39.8207 6.67803C40.784 7.24752 41.5776 8.06345 42.1197 9.04159C42.6699 10.0368 42.9528 11.1573 42.9406 12.2941C42.9406 12.4758 42.9406 12.6725 42.9271 12.8813C42.9136 13.09 42.903 13.3227 42.885 13.578H32.3178C32.409 14.8904 32.8426 15.888 33.6184 16.5708C34.355 17.2396 35.3173 17.606 36.3128 17.5964C37.1338 17.5964 37.8224 17.4092 38.3788 17.0348C38.9349 16.663 39.3686 16.1354 39.6252 15.5181H42.5332C42.1707 16.79 41.4078 17.9114 40.3575 18.7166C39.2669 19.5715 37.9187 19.999 36.3128 19.999ZM36.3128 8.16614C35.3829 8.15379 34.4764 8.45716 33.7417 9.02657C32.9929 9.60019 32.5368 10.4611 32.3734 11.6094H40.0417C39.9866 10.5522 39.6122 9.71382 38.9185 9.09415C38.2249 8.47447 37.3563 8.16514 36.3128 8.16614Z" fill="#FFF9F1"/>
<path d="M45.5635 19.6713V0H48.4639V19.6713H45.5635Z" fill="#FFF9F1"/>
<path d="M54.7978 6.14893H58.3688L51.7531 12.9258L58.3688 19.7041H54.7978L49.7082 14.501C49.2949 14.0799 49.0635 13.5139 49.0635 12.9243C49.0635 12.3347 49.2949 11.7686 49.7082 11.3476L54.7978 6.14893Z" fill="#FFF9F1"/>
</svg>